<svg width="393" height="225" xmlns="http://www.w3.org/2000/svg"><path d="M112.592 0c27.762 0 55.01 10.274 75.575 28.767l-8.225 8.22C139.84 1.54 79.174 3.081 41.644 41.095c-39.588 39.041-39.073 102.74 0 142.294 39.073 39.555 102.823 39.555 142.41 0l84.316-83.219c3.085-3.596 7.712-5.65 12.853-5.65 9.768 0 17.48 8.219 17.48 17.979l-.003.328c-.182 9.604-8.333 17.138-17.991 17.138-2.57 0-5.141-.514-7.712-1.541l11.825-11.815c1.028-1.028 1.542-2.569 1.542-4.11l-.043-.236c-.603-2.976-3.12-5.415-6.126-5.415-1.543 0-3.085.514-4.113 1.541l-83.802 83.733C171.202 213.185 142.41 225 112.592 225 50.384 225 0 174.658 0 112.5S50.384 0 112.592 0zm167.603 0c28.276 0 55.01 10.274 75.575 28.767 46.27 41.61 49.87 112.5 8.226 158.733-41.644 46.233-112.592 49.829-158.863 8.22l8.226-8.22c40.102 35.445 100.768 33.904 138.298-3.596 39.587-39.041 39.073-102.74 0-142.294-39.073-39.555-103.338-39.555-142.41 0l-83.802 83.732c-6.684 6.165-17.48 6.165-24.164 0-7.197-6.678-7.711-17.979-1.028-25.17 3.599-3.083 8.226-5.138 12.853-5.138 2.57 0 5.141.514 7.712 1.541l-11.825 11.815-.187.199c-.903 1.021-1.355 2.466-1.355 3.911 0 1.541.514 3.082 1.542 4.11 1.028 1.027 2.57 1.54 4.113 1.54 1.542 0 3.085-.513 4.113-1.54l4.113-4.11 79.688-79.623C222.1 11.815 250.376 0 280.195 0zm0 23.63c21.593 0 42.157 7.706 58.095 22.09 37.017 32.362 41.13 88.355 8.74 125.342-32.39 36.986-88.428 41.096-125.445 8.733l8.226-8.22c30.847 26.199 76.604 24.144 104.88-4.11 30.333-29.794 29.82-78.595 0-108.903-29.819-30.309-78.66-30.309-108.993 0L193.823 90.41c-11.31 1.027-20.05 10.274-21.08 21.575l-30.332 30.309c-14.91 14.897-38.045 16.438-54.497 4.11-18.508-13.87-22.107-39.556-8.226-58.049 13.882-18.493 39.588-22.089 58.096-8.219l-8.74 8.22c-11.31-7.706-27.248-6.165-37.017 3.595-11.31 11.301-11.31 30.308 0 41.61 11.31 11.301 29.82 11.301 41.644 0l83.801-83.733c16.452-16.952 39.073-26.199 62.723-26.199zm-167.603 0c21.593 0 42.672 7.706 58.61 22.09l-8.226 8.218c-30.847-26.198-76.604-24.143-104.88 4.11-30.334 29.794-29.82 78.596 0 108.904 29.818 30.308 78.66 30.308 108.993 0l30.333-29.794c11.824-1.028 20.564-10.274 21.593-21.576l31.875-31.85c14.395-14.896 37.53-16.437 53.982-4.109 17.995 13.87 22.108 39.555 8.226 58.048-13.88 17.98-39.587 22.09-58.095 8.22l8.74-8.733c11.825 8.219 27.762 6.164 37.53-3.596 11.825-11.815 11.825-30.822 0-42.124-11.824-11.815-30.847-11.815-42.157 0l-83.802 83.733c-16.451 16.952-39.073 26.199-62.722 26.199-49.355 0-88.943-39.555-88.943-88.87 0-49.315 39.588-88.87 88.943-88.87zm0 23.63c15.424 0 30.333 5.137 41.644 15.411l-8.226 8.22C124.93 53.937 94.084 55.992 75.06 75c-21.079 21.062-21.079 54.452 0 75.514 21.08 21.061 54.497 21.061 75.576 0l25.192-25.172c2.056 3.083 4.627 6.165 8.226 8.22l-25.192 25.17c-12.34 12.33-28.791 19.008-46.271 19.008-35.988 0-65.293-29.281-65.293-65.24 0-35.959 29.305-65.24 65.293-65.24zm167.603 0c15.423 0 30.333 5.137 42.157 14.898 27.249 23.116 31.362 64.212 8.226 91.952-23.135 27.226-64.264 31.335-92.027 8.219l8.226-8.22c21.593 16.953 51.926 14.898 70.948-4.109 21.08-21.062 21.08-54.452 0-75.514-21.078-21.061-54.496-21.061-75.575 0L215.416 101.2c-2.057-3.083-4.627-6.165-8.226-8.22l26.734-26.712c12.339-12.329 28.79-19.007 46.27-19.007zm-84.316 53.94c6.684 0 11.825 5.137 11.825 11.815s-5.141 11.815-11.825 11.815c-6.683 0-11.824-5.137-11.824-11.815 0-6.576 4.984-11.657 11.517-11.812l.307-.003z" fill="#404855"/></svg>